<svg xmlns="http://www.w3.org/2000/svg" viewBox="0 0 640 640"><defs><style>.cls-1{fill:#ff9a00;}.cls-2{fill:#f29f1f;}.cls-3{fill:#fabd2f;}.cls-4{fill:#ffb94f;}.cls-5{fill:#fff;}</style></defs><path class="cls-1" d="M344.86,184.76c12,11.53,9.22,27,11.06,41.2-3.78,37.54,25.35,23.51,43.2,27.17-2.9,17.76,19.81,20.18,21.43,35.23-17.86,10.23-13.95,19.78-.89,32,15.41,14.42-24.53,24-7.92,31.74,28.39,13.29,12.92,35.43,18.37,52.94l.28-.18c-14.17-.48-9.78,7.19-6.42,14.4-39.11,20.23-79.91,22.34-121.91,11.16-46.38-12.34-75.69-61.67-62.71-105.38,9.88-4.56,2.74-9.88.12-14.18-3.17-5.19-7.68-2.06-10.83.44-6.24,4.94-4.9,10,.87,14.54l-14.38,13.78c-3.33-7.41-6.9-14.41-17.26-11.31-6.54,2-10.06-.61-10.15-7.32-.08-6,2.44-7.78,9.2-8.91,17.66-2.95,20.51-12.17,7.31-25,7-16.44,30.64-17.8,34.27-37.3C243.43,237,254,236.13,265.5,237c1.79,11.07,8.78,10.22,16.92,7.5,13.55-4.54,27.19-8.82,40.8-13.21,23-.23,24.37-13.9,18.38-30.72C339.2,193.9,330.09,187.43,344.86,184.76ZM375.3,407.87c-9.43-3.4-17.79-3.29-18.25,9.17-.32,8.47,7.48,7.83,13.33,7.89,9.56.1,21.13.33,20.79-12.65C390.84,399.93,380.62,409.77,375.3,407.87ZM252.11,335.43c-6.39-.94-6.59,2.74-6.63,6.12-.06,4.7,1.65,8.75,6.86,9.4,3.86.48,7.5-2,6.38-5.81S254.09,338.19,252.11,335.43Z"/><path class="cls-1" d="M114,361.18l13.42-15c18.91,6.12,7.44,30.49,23.41,38.36-35.3,27.37-33.31,26.53-8.59,62.55,27.94,40.7,69.18,51.06,113.29,58.2,6.6,15.56,13.78,2.62,20.74.42l84.61-11.37c1.59,14-1.31,27.43-5.16,40.75-34.51,15.31-69.93,10.46-105.4,4.7-16.33-12.79-32.9-23.38-52.47-5.42-21,3.47-36-10.17-52.76-18.44-37.25-18.42-61.57-51.83-91.15-79.13-4.77-4.4-5.21-10.67-2.83-16.84,7.64-2.89,12.34,16.6,21.13,2.91,3.32-5.18,12.72-10.22,5.32-17.4-19.52-18.92-9.37-24.54,11-27.07,1.64-.2,2.82-4.06,4.21-6.22,8.56,1.26,13.15-5.74,19.44-9.19,1.55,5.4,4.13,9.68,10.74,8.5.79-.14,1.89-3.51,1.64-3.68C121.18,365.4,117.57,363.32,114,361.18ZM341.35,516.7c-1.41-.83-2.65-2.11-3.92-2.15s-2.63,1.16-3.95,1.82c1.24.77,2.45,2.09,3.72,2.15S339.85,517.41,341.35,516.7Zm-52.64,15.67c-1.41-.83-2.64-2.11-3.92-2.15s-2.63,1.17-3.94,1.82c1.23.77,2.44,2.09,3.71,2.16S287.21,533.08,288.71,532.37Z"/><path class="cls-2" d="M399.12,253.13c-17.85-3.66-47,10.37-43.2-27.17,23.34,0,45.88-9.15,69.75-5,14.3,2.52,16.25-9.56,18.91-19.69,3.26-12.38-2.26-26,5.41-37.75,9.52,2.06,16,13.4,29.41,4.64,9-5.83,6.48,7,8.24,12.11,3.81,15.29-13.32,37.64,15.24,44.59,4,6.58-15.42,17.43,3.06,20.74,19.32,3.45,17.53,14.65,12.93,28C478.2,271.16,439.26,258.66,399.12,253.13Z"/><path class="cls-2" d="M150.83,384.5c-16-7.87-4.5-32.24-23.41-38.36-5.88-6.92-14.82-11.84-14.88-22.55-.07-8.36,1.53-17.14-.55-25-5.46-20.51,4.33-26,22.32-25.1,14.29,8.4,10.37,35.64,29.44,34.68,13.82-.7,27-13.66,40.49-21.16,13.19,12.86,10.34,22.08-7.32,25-6.76,1.13-9.28,2.87-9.2,8.91.09,6.71,3.61,9.28,10.15,7.32,10.36-3.1,13.93,3.9,17.26,11.31Zm-13.44-86.75-.33,3.76c.49-.58,1.31-1.13,1.36-1.75S137.78,298.42,137.39,297.75Z"/><path class="cls-2" d="M571.82,404.87c-11.44,11.28-20.37,25.34-30.11,36.71-22,25.66-49.43,49.54-86,56.33,1.59-12.75-1.09-24.06-11.24-32.84C489,441.15,520.41,403.14,552.61,366,563.36,376.82,565.66,391.79,571.82,404.87Z"/><path class="cls-3" d="M571.82,404.87c-6.16-13.08-8.46-28.05-19.21-38.89l13.33-19.69a8.09,8.09,0,0,0,.9,1.73c.25.3.82.32,1.24.46l-2.2-2.13c7.4-10.33,15.56-20.23,21.94-31.15,4.74-8.11,13.12-17.71-.48-26.1l.36-32.25c2.61,0,5.35-.56,7.81,0C645,269,650.68,280.73,625,324.15,608.57,351.83,589.62,378,571.82,404.87Z"/><path class="cls-3" d="M134.31,273.53c-18-.9-27.78,4.59-22.32,25.1,2.08,7.82.48,16.6.55,25-21.63-28.89-44.44-57-64.38-87-10.17-15.29,5-25,15.21-34.18,9.68-8.72,17.48-6.39,27.06,2.15C111.83,223.61,123.74,248,134.31,273.53Z"/><path class="cls-4" d="M265.5,237c-11.46-.91-22.07,0-27,12.71-22.91-33.21-45.9-66.37-68.66-99.69-4.7-6.88-7-15.3.23-21.17,5.87-4.78,14.18-7.92,22.08-4.16,6.17,2.93,13.25,6.36,17,11.62C231.42,167.92,255.67,198.55,265.5,237Z"/><path class="cls-3" d="M444.5,465.07c10.15,8.78,12.83,20.09,11.24,32.84-29.34,23-64.58,30.33-100,37.14,3.85-13.32,6.75-26.76,5.16-40.75C390.64,489.86,418.4,479.82,444.5,465.07Z"/><path class="cls-4" d="M540.05,234.56c6.25-18.78,19.41-34.91,22.28-54.89,1.92-13.44,9.17-19.19,21.43-14.55,10.52,4,20.07,10.54,15.65,25.24-6.23,20.73-11.7,41.68-17.49,62.54H566.53C561.05,242,544.65,246.68,540.05,234.56Z"/><path class="cls-2" d="M92.76,372.14c-1.39,2.16-2.57,6-4.21,6.22-20.36,2.53-30.51,8.15-11,27.07,7.4,7.18-2,12.22-5.32,17.4-8.79,13.69-13.49-5.8-21.13-2.91l1.38-10.64c9.51-2.13,10.4-9.47,6.87-15.72-1.79-3.18-4.32,3.76-7.3,4.95q-4-6.27-7.93-12.55c1.14-7.22-.77-12.36-9.07-13.16a2.66,2.66,0,0,1-1.29-3.13c4.85-16.38-5.51-30.94-8.79-56.26,13.58,18.2,23.15,18.42,31.51,6.68ZM58.39,358c-2.71.39-5.47,1.34-4.12,4.59,1.21,2.94,3.12,7,5.57,7.72,4,1.19,5.62-2.61,5.39-6.3C65,360,62.12,358.4,58.39,358Z"/><path class="cls-3" d="M344.86,184.76c-14.77,2.67-5.66,9.14-3.26,15.85,6,16.82,4.67,30.49-18.38,30.72,1.72-14-3.62-27-6.24-40.35,9-17.12,1.81-41.89-15.67-53.59-2.89-10.28-17.57-22,.27-30.4,15.9-7.47,24.85,5.06,29.41,17.58,4.95,13.56,12.3,27.1,9.44,42.55l5.74,7.46C345.73,178,345.3,181.37,344.86,184.76Z"/><path class="cls-3" d="M540.05,234.56c4.6,12.12,21,7.46,26.48,18.33-2.18,10.73,2.94,20.25,5.05,30.28-18.42,1.45-35.55-4.13-52.71-9.51,4.6-13.36,6.39-24.56-12.93-28-18.48-3.31.93-14.16-3.06-20.74C517.31,220.38,529.05,226.09,540.05,234.56Z"/><path class="cls-4" d="M56.49,320.09c-8.36,11.74-17.93,11.52-31.51-6.68,3.28,25.32,13.64,39.88,8.79,56.26C15.34,358.85-9.09,351,3.43,321.84c5.28-12.27,10.94-28,26.69-29.5C48.21,290.61,50,308.54,56.49,320.09Z"/><path class="cls-1" d="M487.64,180.32c-1.76-5.08.71-17.94-8.24-12.11C466,177,459.51,165.63,450,163.57q1-5.85,2-11.7c7.52-.79,19.18,7.82,21.39-5.27,3.27-19.3,16.63-29.58,30.15-40.47C516.14,134.64,499.66,157,487.64,180.32Z"/><path class="cls-2" d="M503.53,106.13C490,117,476.65,127.3,473.38,146.6c-2.21,13.09-13.87,4.48-21.39,5.27,1.84-11,3.11-22.1,5.64-32.94C464,91.75,480.12,87.37,503.53,106.13Z"/><path class="cls-4" d="M197.85,534.33c19.57-18,36.14-7.37,52.47,5.42C232.23,543.68,214.87,540.63,197.85,534.33Z"/><path class="cls-2" d="M571.58,283.17c-2.11-10-7.23-19.55-5.05-30.28h15.39l5.78,4-.36,32.25Z"/><path class="cls-1" d="M301.31,137.39C318.79,149.09,326,173.86,317,191,311.86,173.09,301.93,156.58,301.31,137.39Z"/><path class="cls-1" d="M52.06,398.51c3-1.19,5.51-8.13,7.3-4.95,3.53,6.25,2.64,13.59-6.87,15.72C52.35,405.69,52.2,402.1,52.06,398.51Z"/><path class="cls-2" d="M114,361.18c3.57,2.14,7.18,4.22,10.58,6.59.25.17-.85,3.54-1.64,3.68-6.61,1.18-9.19-3.1-10.74-8.5C112.2,362.93,114,361.18,114,361.18Z"/><path class="cls-4" d="M35.06,372.8c8.3.8,10.21,5.94,9.07,13.16C39.08,383,35.33,379.06,35.06,372.8Z"/><path class="cls-1" d="M346.17,174.58l-5.74-7.46C343.68,168.59,346.42,170.45,346.17,174.58Z"/><path class="cls-5" d="M571.58,283.17l15.76,5.93c13.6,8.39,5.22,18,.48,26.1-6.38,10.92-14.54,20.82-21.94,31.15l.06-.06L552.61,366c-32.2,37.16-63.6,75.17-108.11,99.09-26.1,14.75-53.86,24.79-83.62,29.23l-84.61,11.36-20.74-.41c-44.11-7.14-85.35-17.5-113.29-58.2-24.72-36-26.71-35.18,8.59-62.55l64.3-44.88,14.38-13.78,9.84-.8c-13,43.71,16.33,93,62.71,105.38,42,11.18,82.8,9.07,121.91-11.16,6.6-2.84,4.5-9.5,6.42-14.4l-.28.18c30.53-19,46-45.29,34.32-69-9.34-19-20.94-39.43-43.88-47.71-1.62-15.05-24.33-17.47-21.43-35.23,40.14,5.53,79.08,18,119.75,20.53C536,279,553.16,284.62,571.58,283.17Z"/><path class="cls-2" d="M420.55,288.36c22.94,8.28,34.54,28.69,43.88,47.71,11.64,23.68-3.79,49.95-34.32,69-5.45-17.51,10-39.65-18.37-52.94-16.61-7.78,23.33-17.32,7.92-31.74C406.6,308.14,402.69,298.59,420.55,288.36Z"/><path class="cls-2" d="M375.3,407.87c5.32,1.9,15.54-7.94,15.87,4.41.34,13-11.23,12.75-20.79,12.65-5.85-.06-13.65.58-13.33-7.89C357.51,404.58,365.87,404.47,375.3,407.87Z"/><path class="cls-2" d="M239.35,325l-9.84.8c-5.77-4.53-7.11-9.6-.87-14.54,3.15-2.5,7.66-5.63,10.83-.44C242.09,315.16,249.23,320.48,239.35,325Z"/><path class="cls-2" d="M252.11,335.43c2,2.76,5.48,5.89,6.61,9.71s-2.52,6.29-6.38,5.81c-5.21-.65-6.92-4.7-6.86-9.4C245.52,338.17,245.72,334.49,252.11,335.43Z"/><path class="cls-2" d="M430.39,404.86c-1.92,4.9.18,11.56-6.42,14.4C420.61,412.05,416.22,404.38,430.39,404.86Z"/><path class="cls-4" d="M255.53,505.25l20.74.41C269.31,507.87,262.13,520.81,255.53,505.25Z"/><path class="cls-4" d="M341.35,516.7c-1.5.71-2.85,1.89-4.15,1.82s-2.48-1.38-3.72-2.15c1.32-.66,2.65-1.85,3.95-1.82S339.94,515.87,341.35,516.7Z"/><path class="cls-4" d="M288.71,532.37c-1.5.71-2.85,1.89-4.15,1.83s-2.48-1.39-3.71-2.16c1.31-.65,2.64-1.85,3.94-1.82S287.3,531.54,288.71,532.37Z"/><path class="cls-4" d="M137.4,297.75c.38.67,1.08,1.37,1,2s-.87,1.17-1.36,1.75C137.17,300.26,137.28,299,137.4,297.75Z"/><path class="cls-2" d="M565.88,346.35l2.2,2.13c-.42-.14-1-.16-1.24-.46a8.09,8.09,0,0,1-.9-1.73Z"/><path class="cls-1" d="M58.39,358c3.73.38,6.58,2,6.84,6,.23,3.69-1.42,7.49-5.39,6.3-2.45-.74-4.36-4.78-5.57-7.72C52.92,359.36,55.68,358.41,58.39,358Z"/></svg>