<svg id="size-card" viewBox="0 0 242.65 153.01" xmlns="http://www.w3.org/2000/svg"><rect fill="#555" height="153.01" rx="9" width="242.65"/><g fill="#595959"><path d="m0 12.79h242.65v1h-242.65z"/><path d="m0 15.96h242.65v1h-242.65z"/><path d="m0 19.12h242.65v1h-242.65z"/><path d="m0 22.28h242.65v1h-242.65z"/><path d="m0 25.44h242.65v1h-242.65z"/><path d="m0 28.6h242.65v1h-242.65z"/><path d="m0 31.76h242.65v1h-242.65z"/><path d="m0 34.92h242.65v1h-242.65z"/><path d="m0 38.08h242.65v1h-242.65z"/><path d="m0 41.24h242.65v1h-242.65z"/><path d="m0 44.4h242.65v1h-242.65z"/><path d="m0 47.56h242.65v1h-242.65z"/><path d="m0 50.72h242.65v1h-242.65z"/><path d="m0 53.88h242.65v1h-242.65z"/><path d="m0 57.04h242.65v1h-242.65z"/><path d="m0 60.2h242.65v1h-242.65z"/><path d="m0 63.36h242.65v1h-242.65z"/><path d="m0 66.53h242.65v1h-242.65z"/><path d="m0 69.69h242.65v1h-242.65z"/><path d="m0 72.85h242.65v1h-242.65z"/><path d="m0 76.01h242.65v1h-242.65z"/><path d="m0 79.17h242.65v1h-242.65z"/><path d="m0 82.33h242.65v1h-242.65z"/><path d="m0 85.49h242.65v1h-242.65z"/><path d="m0 88.65h242.65v1h-242.65z"/><path d="m0 91.81h242.65v1h-242.65z"/><path d="m0 94.97h242.65v1h-242.65z"/><path d="m0 98.13h242.65v1h-242.65z"/><path d="m0 101.29h242.65v1h-242.65z"/><path d="m0 104.45h242.65v1h-242.65z"/><path d="m0 107.61h242.65v1h-242.65z"/><path d="m0 110.77h242.65v1h-242.65z"/><path d="m0 113.93h242.65v1h-242.65z"/><path d="m0 117.1h242.65v1h-242.65z"/><path d="m0 120.26h242.65v1h-242.65z"/><path d="m0 123.42h242.65v1h-242.65z"/><path d="m0 126.58h242.65v1h-242.65z"/><path d="m0 129.74h242.65v1h-242.65z"/><path d="m0 132.9h242.65v1h-242.65z"/><path d="m0 136.06h242.65v1h-242.65z"/><path d="m0 139.22h242.65v1h-242.65z"/></g><rect fill="#aaa" height="24.09" rx="4.25" width="34.02" x="20.27" y="53.15"/><path d="m28.27 102.89a4.28 4.28 0 0 1 -.8 1.58 3.5 3.5 0 0 1 -1.3 1 4.78 4.78 0 0 1 -3.49 0 3.28 3.28 0 0 1 -1.31-1 4.3 4.3 0 0 1 -.82-1.58 7.56 7.56 0 0 1 -.28-2.17v-3a7.49 7.49 0 0 1 .28-2.16 4.48 4.48 0 0 1 .82-1.6 3.49 3.49 0 0 1 1.29-1 4.67 4.67 0 0 1 3.5 0 3.64 3.64 0 0 1 1.31 1 4.45 4.45 0 0 1 .8 1.6 7.48 7.48 0 0 1 .29 2.16v3a7.55 7.55 0 0 1 -.29 2.17zm-1.38-6.32a5 5 0 0 0 -.25-1.12 2.4 2.4 0 0 0 -.49-.81 1.9 1.9 0 0 0 -.74-.5 2.79 2.79 0 0 0 -1-.17 2.74 2.74 0 0 0 -1 .18 2.07 2.07 0 0 0 -.75.52 2.87 2.87 0 0 0 -.55 1.12 6.11 6.11 0 0 0 -.18 1.57v3zm0 2.68v-1.12l-5 3.8a4 4 0 0 0 .28 1.13 2.24 2.24 0 0 0 .53.81 1.77 1.77 0 0 0 .72.45 3.08 3.08 0 0 0 1.93 0 2.09 2.09 0 0 0 .73-.49 2.5 2.5 0 0 0 .59-1.12 6.16 6.16 0 0 0 .19-1.64z" fill="#eee"/><path d="m39.08 102.89a4.45 4.45 0 0 1 -.81 1.58 3.39 3.39 0 0 1 -1.29 1 4.81 4.81 0 0 1 -3.5 0 3.36 3.36 0 0 1 -1.31-1 4.3 4.3 0 0 1 -.82-1.58 7.56 7.56 0 0 1 -.28-2.17v-3a7.49 7.49 0 0 1 .28-2.16 4.48 4.48 0 0 1 .82-1.6 3.49 3.49 0 0 1 1.29-1 4.44 4.44 0 0 1 1.75-.34 4.37 4.37 0 0 1 1.79.38 3.56 3.56 0 0 1 1.31 1 4.63 4.63 0 0 1 .81 1.6 7.86 7.86 0 0 1 .28 2.16v3a7.93 7.93 0 0 1 -.32 2.13zm-1.39-6.32a5 5 0 0 0 -.25-1.12 2.4 2.4 0 0 0 -.49-.81 1.87 1.87 0 0 0 -.73-.5 2.85 2.85 0 0 0 -1-.17 2.66 2.66 0 0 0 -1 .18 2 2 0 0 0 -.76.52 2.87 2.87 0 0 0 -.55 1.12 6.11 6.11 0 0 0 -.18 1.57v3zm0 2.68v-1.12l-5 3.8a4 4 0 0 0 .28 1.13 2.24 2.24 0 0 0 .53.81 1.91 1.91 0 0 0 .72.45 2.83 2.83 0 0 0 .95.15 2.72 2.72 0 0 0 1-.16 2.09 2.09 0 0 0 .73-.49 2.5 2.5 0 0 0 .59-1.12 6.16 6.16 0 0 0 .19-1.64z" fill="#eee"/><path d="m49.88 102.89a4.45 4.45 0 0 1 -.81 1.58 3.39 3.39 0 0 1 -1.29 1 4.81 4.81 0 0 1 -3.5 0 3.36 3.36 0 0 1 -1.31-1 4.3 4.3 0 0 1 -.82-1.58 7.56 7.56 0 0 1 -.28-2.17v-3a7.49 7.49 0 0 1 .28-2.16 4.48 4.48 0 0 1 .85-1.56 3.44 3.44 0 0 1 1.3-1 4.65 4.65 0 0 1 3.49 0 3.56 3.56 0 0 1 1.31 1 4.63 4.63 0 0 1 .81 1.6 7.49 7.49 0 0 1 .28 2.16v3a7.56 7.56 0 0 1 -.31 2.13zm-1.39-6.32a5 5 0 0 0 -.25-1.12 2.25 2.25 0 0 0 -.49-.81 1.87 1.87 0 0 0 -.73-.5 2.85 2.85 0 0 0 -1.02-.14 2.66 2.66 0 0 0 -1 .18 1.91 1.91 0 0 0 -.75.52 2.74 2.74 0 0 0 -.55 1.12 6.11 6.11 0 0 0 -.18 1.57v3zm0 2.68v-1.12l-5 3.8a4.35 4.35 0 0 0 .28 1.13 2.38 2.38 0 0 0 .53.81 1.91 1.91 0 0 0 .72.45 2.83 2.83 0 0 0 1 .15 2.69 2.69 0 0 0 1-.16 2.09 2.09 0 0 0 .73-.49 2.61 2.61 0 0 0 .6-1.12 6.63 6.63 0 0 0 .18-1.64z" fill="#eee"/><path d="m60.68 102.89a4.45 4.45 0 0 1 -.81 1.58 3.39 3.39 0 0 1 -1.29 1 4.37 4.37 0 0 1 -1.75.33 4.44 4.44 0 0 1 -1.75-.33 3.43 3.43 0 0 1 -1.31-1 4.3 4.3 0 0 1 -.82-1.58 7.93 7.93 0 0 1 -.28-2.17v-3a7.86 7.86 0 0 1 .33-2.16 4.48 4.48 0 0 1 .82-1.6 3.52 3.52 0 0 1 1.3-1 4.35 4.35 0 0 1 1.74-.34 4.45 4.45 0 0 1 1.76.34 3.61 3.61 0 0 1 1.3 1 4.63 4.63 0 0 1 .81 1.6 7.49 7.49 0 0 1 .27 2.16v3a7.56 7.56 0 0 1 -.32 2.17zm-1.39-6.32a5 5 0 0 0 -.29-1.12 2.25 2.25 0 0 0 -.49-.81 1.87 1.87 0 0 0 -.73-.5 2.85 2.85 0 0 0 -1-.17 2.69 2.69 0 0 0 -1 .18 1.91 1.91 0 0 0 -.75.52 2.74 2.74 0 0 0 -.55 1.12 6.11 6.11 0 0 0 -.18 1.57v3zm0 2.68v-1.12l-5 3.8a4.35 4.35 0 0 0 .28 1.13 2.38 2.38 0 0 0 .53.81 1.91 1.91 0 0 0 .72.45 2.83 2.83 0 0 0 .95.15 2.69 2.69 0 0 0 1-.16 2.09 2.09 0 0 0 .73-.49 2.61 2.61 0 0 0 .6-1.12 6.6 6.6 0 0 0 .19-1.64z" fill="#eee"/><path d="m82.28 102.89a4.15 4.15 0 0 1 -.81 1.58 3.39 3.39 0 0 1 -1.29 1 4.37 4.37 0 0 1 -1.75.33 4.44 4.44 0 0 1 -1.75-.33 3.32 3.32 0 0 1 -1.3-1 4.3 4.3 0 0 1 -.82-1.58 7.56 7.56 0 0 1 -.28-2.17v-3a7.49 7.49 0 0 1 .28-2.16 4.48 4.48 0 0 1 .82-1.6 3.49 3.49 0 0 1 1.29-1 4.67 4.67 0 0 1 3.5 0 3.52 3.52 0 0 1 1.3 1 4.31 4.31 0 0 1 .81 1.6 7.49 7.49 0 0 1 .28 2.16v3a7.56 7.56 0 0 1 -.28 2.17zm-1.39-6.32a4.5 4.5 0 0 0 -.25-1.12 2.39 2.39 0 0 0 -.48-.81 1.9 1.9 0 0 0 -.74-.5 2.79 2.79 0 0 0 -1-.17 2.74 2.74 0 0 0 -1 .18 2.07 2.07 0 0 0 -.75.52 2.74 2.74 0 0 0 -.55 1.12 6.11 6.11 0 0 0 -.18 1.57v3zm0 2.68v-1.12l-5 3.8a4 4 0 0 0 .28 1.13 2.36 2.36 0 0 0 .52.81 1.91 1.91 0 0 0 .72.45 2.87 2.87 0 0 0 1 .15 2.78 2.78 0 0 0 1-.16 2.09 2.09 0 0 0 .73-.49 2.6 2.6 0 0 0 .59-1.12 6.16 6.16 0 0 0 .19-1.64z" fill="#eee"/><path d="m93.09 102.89a4.45 4.45 0 0 1 -.81 1.58 3.5 3.5 0 0 1 -1.3 1 4.35 4.35 0 0 1 -1.74.33 4.4 4.4 0 0 1 -1.75-.33 3.28 3.28 0 0 1 -1.31-1 4.3 4.3 0 0 1 -.82-1.58 7.56 7.56 0 0 1 -.28-2.17v-3a7.49 7.49 0 0 1 .28-2.16 4.48 4.48 0 0 1 .82-1.6 3.49 3.49 0 0 1 1.29-1 4.67 4.67 0 0 1 3.53.04 3.64 3.64 0 0 1 1.31 1 4.63 4.63 0 0 1 .81 1.6 7.86 7.86 0 0 1 .28 2.16v3a7.93 7.93 0 0 1 -.31 2.13zm-1.39-6.32a5 5 0 0 0 -.25-1.12 2.4 2.4 0 0 0 -.49-.81 1.9 1.9 0 0 0 -.74-.5 2.79 2.79 0 0 0 -1-.17 2.74 2.74 0 0 0 -1 .18 2.07 2.07 0 0 0 -.75.52 2.87 2.87 0 0 0 -.55 1.12 6.11 6.11 0 0 0 -.18 1.57v3zm0 2.68v-1.12l-5 3.8a4 4 0 0 0 .28 1.13 2.24 2.24 0 0 0 .53.81 1.84 1.84 0 0 0 .72.45 3.08 3.08 0 0 0 1.93 0 2.09 2.09 0 0 0 .73-.49 2.5 2.5 0 0 0 .59-1.12 6.16 6.16 0 0 0 .19-1.64z" fill="#eee"/><path d="m103.89 102.89a4.45 4.45 0 0 1 -.81 1.58 3.39 3.39 0 0 1 -1.29 1 4.81 4.81 0 0 1 -3.5 0 3.36 3.36 0 0 1 -1.31-1 4.3 4.3 0 0 1 -.82-1.58 7.56 7.56 0 0 1 -.28-2.17v-3a7.49 7.49 0 0 1 .28-2.16 4.48 4.48 0 0 1 .84-1.56 3.44 3.44 0 0 1 1.3-1 4.65 4.65 0 0 1 3.49 0 3.56 3.56 0 0 1 1.31 1 4.63 4.63 0 0 1 .81 1.6 7.86 7.86 0 0 1 .28 2.16v3a7.93 7.93 0 0 1 -.3 2.13zm-1.39-6.32a5 5 0 0 0 -.25-1.12 2.4 2.4 0 0 0 -.49-.81 1.87 1.87 0 0 0 -.73-.5 2.85 2.85 0 0 0 -1-.17 2.66 2.66 0 0 0 -1 .18 2 2 0 0 0 -.76.52 3 3 0 0 0 -.55 1.12 6.11 6.11 0 0 0 -.18 1.57v3zm0 2.68v-1.12l-5 3.8a4.35 4.35 0 0 0 .28 1.13 2.24 2.24 0 0 0 .53.81 1.91 1.91 0 0 0 .72.45 2.83 2.83 0 0 0 1 .15 2.72 2.72 0 0 0 1-.16 2.09 2.09 0 0 0 .73-.49 2.5 2.5 0 0 0 .59-1.12 6.16 6.16 0 0 0 .19-1.64z" fill="#eee"/><path d="m114.69 102.89a4.45 4.45 0 0 1 -.81 1.58 3.39 3.39 0 0 1 -1.29 1 4.37 4.37 0 0 1 -1.75.33 4.44 4.44 0 0 1 -1.75-.33 3.36 3.36 0 0 1 -1.31-1 4.3 4.3 0 0 1 -.82-1.58 7.93 7.93 0 0 1 -.28-2.17v-3a7.86 7.86 0 0 1 .28-2.16 4.48 4.48 0 0 1 .82-1.6 3.44 3.44 0 0 1 1.3-1 4.65 4.65 0 0 1 3.49 0 3.56 3.56 0 0 1 1.31 1 4.63 4.63 0 0 1 .81 1.6 7.49 7.49 0 0 1 .28 2.16v3a7.56 7.56 0 0 1 -.28 2.17zm-1.39-6.32a5 5 0 0 0 -.25-1.12 2.25 2.25 0 0 0 -.49-.81 1.87 1.87 0 0 0 -.73-.5 2.85 2.85 0 0 0 -1-.17 2.66 2.66 0 0 0 -1 .18 1.91 1.91 0 0 0 -.75.52 2.74 2.74 0 0 0 -.55 1.12 6.11 6.11 0 0 0 -.18 1.57v3zm0 2.68v-1.12l-5 3.8a4.35 4.35 0 0 0 .28 1.13 2.38 2.38 0 0 0 .53.81 1.91 1.91 0 0 0 .72.45 2.83 2.83 0 0 0 1 .15 2.69 2.69 0 0 0 1-.16 2.09 2.09 0 0 0 .73-.49 2.61 2.61 0 0 0 .6-1.12 6.6 6.6 0 0 0 .19-1.64z" fill="#eee"/><path d="m132.19 105.62v-10.73l-3.35 1.28v-1.49l4.84-1.86h.13v12.8z" fill="#eee"/><path d="m138.81 105.62v-1.17l4.19-4.66c.37-.42.69-.79.94-1.11a7.55 7.55 0 0 0 .61-.9 3.18 3.18 0 0 0 .32-.76 3.23 3.23 0 0 0 .1-.76 2.42 2.42 0 0 0 -.16-.89 2 2 0 0 0 -.44-.72 2.14 2.14 0 0 0 -.72-.49 2.35 2.35 0 0 0 -.94-.18 3.07 3.07 0 0 0 -1.11.18 2.09 2.09 0 0 0 -.78.52 2.19 2.19 0 0 0 -.47.83 3.6 3.6 0 0 0 -.16 1.08h-1.63a4.12 4.12 0 0 1 .28-1.53 3.73 3.73 0 0 1 2.16-2.06 4.55 4.55 0 0 1 1.75-.32 4.64 4.64 0 0 1 1.63.27 3.62 3.62 0 0 1 1.22.74 3.16 3.16 0 0 1 .77 1.13 3.62 3.62 0 0 1 .27 1.41 3.39 3.39 0 0 1 -.19 1.13 5.86 5.86 0 0 1 -.52 1.11 9.25 9.25 0 0 1 -.77 1.07c-.29.36-.6.71-.92 1.06l-3.43 3.73h6.42v1.33z" fill="#eee"/><path d="m153.2 98.43a3.33 3.33 0 0 0 1.09-.16 2.35 2.35 0 0 0 .79-.46 1.89 1.89 0 0 0 .49-.69 2.35 2.35 0 0 0 .16-.89 3 3 0 0 0 -.15-1 1.78 1.78 0 0 0 -.44-.71 1.75 1.75 0 0 0 -.69-.4 2.85 2.85 0 0 0 -1-.14 2.81 2.81 0 0 0 -.94.15 2 2 0 0 0 -.73.45 2 2 0 0 0 -.47.69 2.38 2.38 0 0 0 -.17.91h-1.63a3.34 3.34 0 0 1 1.09-2.51 3.68 3.68 0 0 1 1.24-.75 4.35 4.35 0 0 1 1.61-.28 4.94 4.94 0 0 1 1.58.24 3.26 3.26 0 0 1 1.22.69 3.07 3.07 0 0 1 .79 1.13 4 4 0 0 1 .28 1.56 3 3 0 0 1 -.11.77 2.93 2.93 0 0 1 -.36.76 2.88 2.88 0 0 1 -.61.71 3.27 3.27 0 0 1 -.89.55 3.18 3.18 0 0 1 1 .53 2.73 2.73 0 0 1 1 1.58 3.86 3.86 0 0 1 .1.89 4 4 0 0 1 -.3 1.59 3.36 3.36 0 0 1 -.86 1.17 3.71 3.71 0 0 1 -1.29.73 4.84 4.84 0 0 1 -1.6.25 5.08 5.08 0 0 1 -1.58-.24 3.63 3.63 0 0 1 -1.29-.69 3.29 3.29 0 0 1 -.87-1.12 3.44 3.44 0 0 1 -.32-1.5h1.63a2.24 2.24 0 0 0 .17.91 1.85 1.85 0 0 0 .49.71 2.24 2.24 0 0 0 .77.45 3.52 3.52 0 0 0 2 0 2.16 2.16 0 0 0 .77-.44 2.08 2.08 0 0 0 .49-.75 3 3 0 0 0 .17-1 2.49 2.49 0 0 0 -.2-1 2.1 2.1 0 0 0 -.55-.73 2.53 2.53 0 0 0 -.87-.43 4.21 4.21 0 0 0 -1.11-.14h-1.1v-1.39z" fill="#eee"/><path d="m169.32 101.32v1.32h-1.78v3h-1.63v-3h-5.83v-1l5.73-8.87h1.73v8.5zm-3.41 0v-6.32l-.26.49-3.77 5.85z" fill="#eee"/><path d="m183.77 92.82h6.57v1.58h-5.2l-.36 3.41a4.87 4.87 0 0 1 .91-.39 4.1 4.1 0 0 1 1.22-.16 4 4 0 0 1 1.59.3 3.37 3.37 0 0 1 1.19.87 3.86 3.86 0 0 1 .76 1.35 5.42 5.42 0 0 1 .26 1.76 5.7 5.7 0 0 1 -.24 1.69 3.76 3.76 0 0 1 -.74 1.35 3.31 3.31 0 0 1 -1.26.89 4.55 4.55 0 0 1 -1.77.32 4.78 4.78 0 0 1 -1.48-.22 3.49 3.49 0 0 1 -1.23-.66 3.38 3.38 0 0 1 -.89-1.11 4.26 4.26 0 0 1 -.44-1.55h1.55a2.54 2.54 0 0 0 .8 1.65 2.48 2.48 0 0 0 1.69.56 2.43 2.43 0 0 0 1-.2 2.08 2.08 0 0 0 .75-.6 2.5 2.5 0 0 0 .45-.91 4.1 4.1 0 0 0 .16-1.2 3.63 3.63 0 0 0 -.17-1.11 2.77 2.77 0 0 0 -.5-.91 2.25 2.25 0 0 0 -.8-.59 2.53 2.53 0 0 0 -1.09-.22 4.68 4.68 0 0 0 -.7 0 2.54 2.54 0 0 0 -.53.17 2.09 2.09 0 0 0 -.44.25c-.14.1-.28.21-.43.34l-1.3-.33z" fill="#eee"/><path d="m199.34 94.27h-.14a5.15 5.15 0 0 0 -2 .33 3.77 3.77 0 0 0 -1.34.88 3.88 3.88 0 0 0 -.84 1.38 6.13 6.13 0 0 0 -.34 1.65 3.21 3.21 0 0 1 .53-.51 4 4 0 0 1 .65-.41 4.33 4.33 0 0 1 .74-.27 3.86 3.86 0 0 1 .84-.1 3.41 3.41 0 0 1 1.65.37 3.27 3.27 0 0 1 1.15 1 4 4 0 0 1 .66 1.35 5.8 5.8 0 0 1 0 3.23 3.86 3.86 0 0 1 -.76 1.38 3.43 3.43 0 0 1 -1.24.94 4 4 0 0 1 -1.72.34 3.71 3.71 0 0 1 -1.73-.39 4.1 4.1 0 0 1 -1.26-1 4.82 4.82 0 0 1 -.85-1.62 6.31 6.31 0 0 1 -.28-1.86v-.77a13.29 13.29 0 0 1 .38-3.14 5.41 5.41 0 0 1 1.48-2.65 4.9 4.9 0 0 1 1.83-1.14 7.46 7.46 0 0 1 2.45-.38h.14zm-2.92 4.44a2.73 2.73 0 0 0 -.72.37 2.45 2.45 0 0 0 -.59.57 2.81 2.81 0 0 0 -.41.74v.54a4.94 4.94 0 0 0 .21 1.5 3.32 3.32 0 0 0 .54 1.1 2.3 2.3 0 0 0 .79.68 2 2 0 0 0 .94.24 2.31 2.31 0 0 0 1-.22 2.13 2.13 0 0 0 .75-.61 2.69 2.69 0 0 0 .45-.93 4 4 0 0 0 .16-1.17 4.34 4.34 0 0 0 -.14-1.09 3.17 3.17 0 0 0 -.43-1 2.42 2.42 0 0 0 -.73-.66 2.15 2.15 0 0 0 -1-.24 2.4 2.4 0 0 0 -.82.18z" fill="#eee"/><path d="m207 105.62h-1.71l5.28-11.38h-6.92v-1.42h8.65v.91z" fill="#eee"/><path d="m222.58 97.36a3 3 0 0 1 -.66 1 4.15 4.15 0 0 1 -.44.38 4.6 4.6 0 0 1 -.48.26 4.33 4.33 0 0 1 .89.52 3.36 3.36 0 0 1 .69.72 3.45 3.45 0 0 1 .44.88 3.33 3.33 0 0 1 .15 1 3.64 3.64 0 0 1 -.32 1.55 3.26 3.26 0 0 1 -.87 1.13 3.85 3.85 0 0 1 -1.29.71 5.08 5.08 0 0 1 -1.58.24 5.22 5.22 0 0 1 -1.61-.24 3.54 3.54 0 0 1 -1.28-.7 3.15 3.15 0 0 1 -.87-1.13 3.65 3.65 0 0 1 -.32-1.56 3.33 3.33 0 0 1 .15-1 3.19 3.19 0 0 1 .43-.89 3.5 3.5 0 0 1 .68-.71 3.74 3.74 0 0 1 .89-.53 3.4 3.4 0 0 1 -.77-.5 3.07 3.07 0 0 1 -.58-.67 3 3 0 0 1 -.37-.79 3 3 0 0 1 -.13-.9 3.7 3.7 0 0 1 .28-1.49 3.05 3.05 0 0 1 .78-1.1 3.37 3.37 0 0 1 1.18-.69 4.87 4.87 0 0 1 3 0 3.56 3.56 0 0 1 1.2.69 3 3 0 0 1 .8 1.1 3.7 3.7 0 0 1 .29 1.49 3.18 3.18 0 0 1 -.28 1.23zm-1.27 3.78a2.38 2.38 0 0 0 -.5-.77 2.25 2.25 0 0 0 -.78-.49 2.84 2.84 0 0 0 -2 0 2.2 2.2 0 0 0 -.77.49 2.18 2.18 0 0 0 -.48.77 2.64 2.64 0 0 0 -.17 1 2.61 2.61 0 0 0 .17 1 2 2 0 0 0 .48.73 2.29 2.29 0 0 0 .77.46 3.22 3.22 0 0 0 1 .15 3.05 3.05 0 0 0 1-.15 2.33 2.33 0 0 0 .78-.46 2.18 2.18 0 0 0 .49-.73 2.61 2.61 0 0 0 .18-1 2.64 2.64 0 0 0 -.17-1zm-.31-5.84a2.24 2.24 0 0 0 -.44-.71 2.17 2.17 0 0 0 -.69-.45 2.21 2.21 0 0 0 -.87-.14 2.39 2.39 0 0 0 -.86.15 1.93 1.93 0 0 0 -.67.45 2 2 0 0 0 -.43.7 2.64 2.64 0 0 0 0 1.81 2 2 0 0 0 .44.68 1.91 1.91 0 0 0 .67.44 2.57 2.57 0 0 0 1.73 0 2.08 2.08 0 0 0 .69-.44 2.21 2.21 0 0 0 .44-.69 2.57 2.57 0 0 0 .15-.9 2.3 2.3 0 0 0 -.16-.9z" fill="#eee"/><path d="m22 130.16-.69 2.2h-1.04l2.73-8.53h.91l2.71 8.53h-1.06l-.68-2.2zm2.56-.95-1.13-3.7-1.14 3.7z" fill="#aaa"/><path d="m30.11 131.07a.81.81 0 0 1 .64-.25.79.79 0 0 1 .64.25.83.83 0 0 1 .22.59.81.81 0 0 1 -.22.58 1 1 0 0 1 -1.28 0 .84.84 0 0 1 -.21-.58.87.87 0 0 1 .21-.59z" fill="#aaa"/><path d="m47.51 131.67a2.43 2.43 0 0 1 -.46.33 3.1 3.1 0 0 1 -.88.37 3.65 3.65 0 0 1 -1 .11 3 3 0 0 1 -1-.16 2.74 2.74 0 0 1 -.79-.43 2.9 2.9 0 0 1 -.62-.64 4.42 4.42 0 0 1 -.44-.8 4.67 4.67 0 0 1 -.27-.9 6.13 6.13 0 0 1 -.1-1v-1a6 6 0 0 1 .09-1 4.69 4.69 0 0 1 .24-.91 4.64 4.64 0 0 1 .41-.8 2.8 2.8 0 0 1 .59-.65 2.69 2.69 0 0 1 1.75-.58 3.25 3.25 0 0 1 1.1.18 2.66 2.66 0 0 1 .88.52 2.76 2.76 0 0 1 .6.83 3 3 0 0 1 .28 1.08h-1.04a3 3 0 0 0 -.2-.68 1.53 1.53 0 0 0 -.35-.53 1.49 1.49 0 0 0 -.53-.35 1.73 1.73 0 0 0 -.71-.13 1.83 1.83 0 0 0 -.68.13 1.73 1.73 0 0 0 -.52.36 2 2 0 0 0 -.37.52 3.07 3.07 0 0 0 -.24.62 5 5 0 0 0 -.14.67v.65 1a5.22 5.22 0 0 0 .06.66 3.82 3.82 0 0 0 .15.67 3.14 3.14 0 0 0 .27.62 2.32 2.32 0 0 0 .4.52 1.58 1.58 0 0 0 .53.35 1.75 1.75 0 0 0 .7.14 2.43 2.43 0 0 0 .46 0 2.1 2.1 0 0 0 .9-.28 1.12 1.12 0 0 0 .34-.31v-1.85h-1.77v-.91h2.77v3.13a5.66 5.66 0 0 1 -.41.45z" fill="#aaa"/><path d="m53.68 132.06c0-.13 0-.25 0-.39a2.76 2.76 0 0 1 -.37.31 2.43 2.43 0 0 1 -.44.26 3.2 3.2 0 0 1 -.52.18 2.81 2.81 0 0 1 -.59.06 2.59 2.59 0 0 1 -.91-.15 2.1 2.1 0 0 1 -.69-.39 1.76 1.76 0 0 1 -.6-1.33 1.92 1.92 0 0 1 .21-.92 1.75 1.75 0 0 1 .59-.65 2.66 2.66 0 0 1 .92-.39 4.82 4.82 0 0 1 1.19-.13h1.19v-.52a1.19 1.19 0 0 0 -.11-.51 1.08 1.08 0 0 0 -.3-.4 1.48 1.48 0 0 0 -.47-.24 2 2 0 0 0 -.62-.09 2 2 0 0 0 -.58.08 1.58 1.58 0 0 0 -.43.22.91.91 0 0 0 -.27.32.75.75 0 0 0 -.1.38h-1.14a1.44 1.44 0 0 1 .18-.68 1.86 1.86 0 0 1 .5-.6 2.6 2.6 0 0 1 .79-.43 3.15 3.15 0 0 1 1.06-.16 3.56 3.56 0 0 1 1 .13 2.49 2.49 0 0 1 .8.39 2 2 0 0 1 .53.67 2.12 2.12 0 0 1 .19.93v2.99a4 4 0 0 0 .06.67 3.1 3.1 0 0 0 .16.62v.09h-1.13a1.5 1.5 0 0 1 -.1-.32zm-1.22-.6a2.52 2.52 0 0 0 .5-.22 1.72 1.72 0 0 0 .39-.31 1.27 1.27 0 0 0 .26-.36v-1.28h-1a4.67 4.67 0 0 0 -1 .09 1.81 1.81 0 0 0 -.67.3 1 1 0 0 0 -.26.33 1 1 0 0 0 -.09.44 1.27 1.27 0 0 0 .07.44 1.16 1.16 0 0 0 .24.34 1.2 1.2 0 0 0 .4.23 1.89 1.89 0 0 0 .56.08 2.21 2.21 0 0 0 .6-.08z" fill="#aaa"/><path d="m60.23 123.36v8.07h2.07v.93h-5.3v-.93h2.15v-7.12h-2.15v-1z" fill="#aaa"/><path d="m67.43 123.36v8.07h2.07v.93h-5.31v-.93h2.16v-7.12h-2.16v-1z" fill="#aaa"/><path d="m75.28 132.06c0-.13 0-.25 0-.39a2.25 2.25 0 0 1 -.37.31 2.13 2.13 0 0 1 -.44.26 2.9 2.9 0 0 1 -.52.18 2.81 2.81 0 0 1 -.59.06 2.63 2.63 0 0 1 -.91-.15 2.1 2.1 0 0 1 -.69-.39 1.69 1.69 0 0 1 -.44-.59 1.85 1.85 0 0 1 -.15-.74 1.92 1.92 0 0 1 .2-.92 1.84 1.84 0 0 1 .59-.65 2.75 2.75 0 0 1 .92-.39 5 5 0 0 1 1.2-.13h1.18v-.52a1.19 1.19 0 0 0 -.1-.51 1.08 1.08 0 0 0 -.3-.4 1.6 1.6 0 0 0 -.47-.24 2.2 2.2 0 0 0 -1.21 0 1.58 1.58 0 0 0 -.43.22 1.18 1.18 0 0 0 -.27.32.86.86 0 0 0 -.1.38h-1.14a1.72 1.72 0 0 1 .18-.68 2.16 2.16 0 0 1 .5-.6 2.6 2.6 0 0 1 .79-.43 3.19 3.19 0 0 1 1.06-.16 3.56 3.56 0 0 1 1 .13 2.39 2.39 0 0 1 .8.39 1.92 1.92 0 0 1 .53.67 2.12 2.12 0 0 1 .2.93v2.98a3.92 3.92 0 0 0 0 .67 3.07 3.07 0 0 0 .17.62v.09h-1.08a1 1 0 0 1 -.11-.32zm-1.22-.6a2.61 2.61 0 0 0 .51-.22 1.91 1.91 0 0 0 .38-.31 1.27 1.27 0 0 0 .26-.36v-1.28h-1a4.74 4.74 0 0 0 -1 .09 1.69 1.69 0 0 0 -.66.3.94.94 0 0 0 -.27.33 1 1 0 0 0 -.09.44 1.27 1.27 0 0 0 .08.44.88.88 0 0 0 .24.34 1.06 1.06 0 0 0 .39.23 1.89 1.89 0 0 0 .56.08 2.21 2.21 0 0 0 .6-.08z" fill="#aaa"/><path d="m81 126h2.4v.84h-2.4v3.45a1.78 1.78 0 0 0 .09.61 1 1 0 0 0 .26.38.93.93 0 0 0 .38.2 1.63 1.63 0 0 0 .45.06h.37.36l.34-.06.25-.06.15.77a1.7 1.7 0 0 1 -.33.15 3.26 3.26 0 0 1 -.42.1l-.48.07h-.51a2.56 2.56 0 0 1 -.79-.12 1.69 1.69 0 0 1 -.63-.38 1.89 1.89 0 0 1 -.43-.67 3 3 0 0 1 -.15-1v-3.45h-1.68v-.89h1.67v-1.53h1.1z" fill="#aaa"/><path d="m89 126v5.41h2.1v.93h-5.31v-.93h2.21v-4.41h-2.21v-1zm-1.18-1.92a.46.46 0 0 1 .14-.21.37.37 0 0 1 .2-.12.75.75 0 0 1 .54 0 .35.35 0 0 1 .19.12.48.48 0 0 1 .14.2.76.76 0 0 1 0 .27.66.66 0 0 1 -.16.44.64.64 0 0 1 -.49.18.63.63 0 0 1 -.49-.18.61.61 0 0 1 -.16-.44.75.75 0 0 1 .12-.24z" fill="#aaa"/><path d="m92.82 126h1l.07.94a3.65 3.65 0 0 1 .31-.36 1.64 1.64 0 0 1 .36-.29 1.91 1.91 0 0 1 .61-.29 2.28 2.28 0 0 1 .7-.11 2.58 2.58 0 0 1 .9.14 1.7 1.7 0 0 1 .7.44 2 2 0 0 1 .44.76 3.48 3.48 0 0 1 .16 1.09v4h-1.07v-4a2.41 2.41 0 0 0 -.09-.71 1.24 1.24 0 0 0 -.28-.48 1 1 0 0 0 -.45-.26 1.92 1.92 0 0 0 -.61-.08 2 2 0 0 0 -.56.08 2.65 2.65 0 0 0 -.48.23 3 3 0 0 0 -.32.3 2 2 0 0 0 -.26.38v4.54h-1.13z" fill="#aaa"/><path d="m134.18 129.93a3.21 3.21 0 0 1 -.54 1.06 2.19 2.19 0 0 1 -.86.65 2.87 2.87 0 0 1 -1.17.23 3.13 3.13 0 0 1 -1.17-.22 2.34 2.34 0 0 1 -.87-.66 2.87 2.87 0 0 1 -.54-1.06 4.88 4.88 0 0 1 -.19-1.44v-2a4.9 4.9 0 0 1 .16-1.49 2.87 2.87 0 0 1 .54-1.06 2.27 2.27 0 0 1 .87-.66 3.07 3.07 0 0 1 2.33 0 2.34 2.34 0 0 1 .87.66 3.21 3.21 0 0 1 .54 1.06 5.27 5.27 0 0 1 .18 1.45v2a5.25 5.25 0 0 1 -.15 1.48zm-.93-4.21a3.18 3.18 0 0 0 -.17-.75 1.61 1.61 0 0 0 -.32-.54 1.18 1.18 0 0 0 -.49-.33 2 2 0 0 0 -1.35 0 1.27 1.27 0 0 0 -.5.34 1.82 1.82 0 0 0 -.37.75 4.1 4.1 0 0 0 -.12 1v2zm0 1.79v-.75l-3.25 2.53a2.73 2.73 0 0 0 .19.76 1.53 1.53 0 0 0 .35.53 1.21 1.21 0 0 0 .48.31 2.08 2.08 0 0 0 .63.1 1.9 1.9 0 0 0 .66-.11 1.37 1.37 0 0 0 .48-.33 1.79 1.79 0 0 0 .4-.75 4.32 4.32 0 0 0 .12-1.09z" fill="#aaa"/><path d="m138.25 127a2 2 0 0 0 .72-.11 1.34 1.34 0 0 0 .86-.77 1.59 1.59 0 0 0 .11-.59 2.18 2.18 0 0 0 -.1-.66 1.31 1.31 0 0 0 -.3-.48 1.17 1.17 0 0 0 -.46-.27 2.11 2.11 0 0 0 -.64-.09 2.08 2.08 0 0 0 -.63.1 1.31 1.31 0 0 0 -.48.3 1.36 1.36 0 0 0 -.32.46 1.66 1.66 0 0 0 -.11.61h-1.09a2.37 2.37 0 0 1 .19-.92 2.25 2.25 0 0 1 .54-.75 2.56 2.56 0 0 1 .83-.5 2.83 2.83 0 0 1 1.07-.19 3.17 3.17 0 0 1 1.05.16 2.13 2.13 0 0 1 .82.46 2 2 0 0 1 .52.75 2.61 2.61 0 0 1 .19 1 1.51 1.51 0 0 1 -.08.51 1.67 1.67 0 0 1 -.23.51 2.1 2.1 0 0 1 -1 .84 2.23 2.23 0 0 1 .69.35 1.87 1.87 0 0 1 .45.49 1.75 1.75 0 0 1 .23.57 2.44 2.44 0 0 1 .07.59 2.54 2.54 0 0 1 -.21 1.06 2.11 2.11 0 0 1 -.56.78 2.44 2.44 0 0 1 -.86.49 3.38 3.38 0 0 1 -1.07.17 3.62 3.62 0 0 1 -1.06-.16 2.62 2.62 0 0 1 -.86-.46 2.33 2.33 0 0 1 -.57-.75 2.16 2.16 0 0 1 -.22-1h1.09a1.51 1.51 0 0 0 .11.61 1.4 1.4 0 0 0 .32.47 1.58 1.58 0 0 0 .52.3 2 2 0 0 0 .67.1 2.36 2.36 0 0 0 .67-.09 1.44 1.44 0 0 0 .51-.3 1.23 1.23 0 0 0 .32-.5 1.83 1.83 0 0 0 .12-.7 1.59 1.59 0 0 0 -.14-.68 1.28 1.28 0 0 0 -.36-.49 1.75 1.75 0 0 0 -.58-.29 2.83 2.83 0 0 0 -.74-.09h-.77v-.84z" fill="#aaa"/><path d="m143.87 132.48 3.56-9.26h1l-3.56 9.26z" fill="#aaa"/><path d="m150.26 131.75v-.75l2.79-3.11c.25-.27.46-.52.63-.73a6.22 6.22 0 0 0 .4-.6 2.18 2.18 0 0 0 .22-.51 2.16 2.16 0 0 0 .06-.51 1.66 1.66 0 0 0 -.1-.59 1.31 1.31 0 0 0 -.3-.48 1.43 1.43 0 0 0 -.47-.33 1.61 1.61 0 0 0 -.63-.12 2 2 0 0 0 -.74.12 1.4 1.4 0 0 0 -.52.35 1.5 1.5 0 0 0 -.32.55 2.37 2.37 0 0 0 -.1.72h-1.09a2.59 2.59 0 0 1 .19-1 2.47 2.47 0 0 1 .54-.84 2.63 2.63 0 0 1 .87-.57 3.35 3.35 0 0 1 2.25 0 2.3 2.3 0 0 1 .82.49 2.38 2.38 0 0 1 .51.75 2.47 2.47 0 0 1 .18 1 2.19 2.19 0 0 1 -.13.75 4.06 4.06 0 0 1 -.34.74 5.59 5.59 0 0 1 -.52.71c-.19.24-.39.48-.61.71l-2.29 2.48h4.28v.89z" fill="#aaa"/><path d="m163 129.93a2.87 2.87 0 0 1 -.54 1.06 2.12 2.12 0 0 1 -.86.65 2.86 2.86 0 0 1 -1.16.23 3.05 3.05 0 0 1 -1.17-.22 2.27 2.27 0 0 1 -.87-.66 3 3 0 0 1 -.55-1.06 5.23 5.23 0 0 1 -.19-1.44v-2a5.25 5.25 0 0 1 .19-1.45 3 3 0 0 1 .55-1.06 2.23 2.23 0 0 1 .86-.66 3.07 3.07 0 0 1 2.33 0 2.34 2.34 0 0 1 .87.66 2.87 2.87 0 0 1 .54 1.02 4.9 4.9 0 0 1 .19 1.45v2a4.88 4.88 0 0 1 -.19 1.48zm-.92-4.21a3.77 3.77 0 0 0 -.17-.75 1.63 1.63 0 0 0 -.33-.54 1.12 1.12 0 0 0 -.49-.33 1.71 1.71 0 0 0 -.67-.11 1.83 1.83 0 0 0 -.68.12 1.35 1.35 0 0 0 -.5.34 2 2 0 0 0 -.37.75 4.1 4.1 0 0 0 -.12 1v2zm0 1.79v-.75l-3.32 2.53a3.13 3.13 0 0 0 .19.76 1.69 1.69 0 0 0 .35.53 1.21 1.21 0 0 0 .48.31 2.1 2.1 0 0 0 .64.1 1.88 1.88 0 0 0 .65-.11 1.51 1.51 0 0 0 .49-.33 1.68 1.68 0 0 0 .39-.75 3.88 3.88 0 0 0 .13-1.09z" fill="#aaa"/></svg>