<svg class="arrow-two-sided-svg arrow-two-sided-vertical" width="164" height="900" viewBox="0 0 164 900" fill="none"
  xmlns="http://www.w3.org/2000/svg">
  <path class="arrow-two-sided" fill-rule="evenodd" clip-rule="evenodd" d="M74.2218 4C78.5175 -0.295771 85.4824 -0.295771 89.7781 4L159.782 74.0036C164.077 78.2993 164.077 85.2641 159.782 89.5599C155.486 93.8557 148.521 93.8557 144.225 89.5599L93 38.3345L93 861.665L144.225 810.44C148.521 806.144 155.486 806.144 159.782 810.44C164.078 814.736 164.078 821.701 159.782 825.996L89.7782 896C85.4824 900.296 78.5176 900.296 74.2218 896L4.21825 825.996C-0.0775169 821.701 -0.0775172 814.736 4.21825 810.44C8.51402 806.144 15.4788 806.144 19.7746 810.44L71 861.665L71 38.3345L19.7746 89.5599C15.4788 93.8557 8.51397 93.8557 4.2182 89.5599C-0.0775644 85.2642 -0.0775647 78.2993 4.2182 74.0036L74.2218 4Z" />
</svg>
