<svg fill="none" height="163" viewBox="0 0 222 163" width="222" xmlns="http://www.w3.org/2000/svg"><path clip-rule="evenodd" d="m3.22183 88.7817c-4.29577-4.2957-4.29577-11.2605 0-15.5563l70.00357-70.00357c4.2958-4.29577 11.2606-4.29577 15.5563 0 4.2958 4.29577 4.2958 11.26057 0 15.55637l-51.2253 51.2254h146.8876l-51.226-51.2254c-4.296-4.2958-4.296-11.2606 0-15.55637s11.261-4.29577 15.557 0l70.003 70.00357c4.296 4.2958 4.296 11.2606 0 15.5563l-70.003 70.0033c-4.296 4.296-11.261 4.296-15.557 0-4.296-4.295-4.296-11.26 0-15.556l51.226-51.2254h-146.8876l51.2253 51.2254c4.2958 4.296 4.2958 11.261 0 15.556-4.2957 4.296-11.2605 4.296-15.5563 0z" fill="#000" fill-rule="evenodd"/></svg>