<svg class="arrow-two-sided-svg arrow-two-sided-horizontal" width="1440" height="163" viewBox="0 0 1440 163" fill="none"
  xmlns="http://www.w3.org/2000/svg">
  <path class="arrow-two-sided" fill-rule="evenodd" clip-rule="evenodd" d="M3.49996 88.7818C-0.795805 84.486 -0.795805 77.5212 3.49996 73.2254L73.5035 3.22183C77.7993 -1.07393 84.7641 -1.07393 89.0599 3.22183C93.3557 7.5176 93.3557 14.4824 89.0599 18.7782L37.8345 70.0036L1402.17 70.0036L1350.94 18.7782C1346.64 14.4824 1346.64 7.5176 1350.94 3.22183C1355.24 -1.07394 1362.2 -1.07394 1366.5 3.22183L1436.5 73.2254C1440.8 77.5212 1440.8 84.486 1436.5 88.7817L1366.5 158.785C1362.2 163.081 1355.24 163.081 1350.94 158.785C1346.64 154.49 1346.64 147.525 1350.94 143.229L1402.17 92.0036L37.8345 92.0036L89.0599 143.229C93.3557 147.525 93.3557 154.49 89.0599 158.785C84.7641 163.081 77.7993 163.081 73.5035 158.785L3.49996 88.7818Z" />
</svg>
