<svg class="size-obj" id="size-usba" xmlns="http://www.w3.org/2000/svg" xmlns:xlink="http://www.w3.org/1999/xlink" viewBox="0 0 56.69 90.71"><defs><style>.a{fill:url(#a);}.b{fill:none;stroke:#999;stroke-width:0.3px;}.b,.c{stroke-miterlimit:10;}.c,.e{fill:#fff;}.c{stroke:#666;stroke-width:0.1px;}.d{fill:#666;}</style><linearGradient id="a" x1="11.34" y1="17.01" x2="45.35" y2="17.01" gradientUnits="userSpaceOnUse"><stop offset="0" stop-color="#4d4d4d"/><stop offset="0" stop-color="#565656"/><stop offset="0.02" stop-color="#757575"/><stop offset="0.04" stop-color="#919191"/><stop offset="0.05" stop-color="#a7a7a7"/><stop offset="0.08" stop-color="#b8b8b8"/><stop offset="0.1" stop-color="#c3c3c3"/><stop offset="0.14" stop-color="#cacaca"/><stop offset="0.25" stop-color="#ccc"/><stop offset="0.75" stop-color="#ccc"/><stop offset="0.86" stop-color="#cacaca"/><stop offset="0.9" stop-color="#c3c3c3"/><stop offset="0.92" stop-color="#b8b8b8"/><stop offset="0.95" stop-color="#a7a7a7"/><stop offset="0.96" stop-color="#919191"/><stop offset="0.98" stop-color="#757575"/><stop offset="1" stop-color="#565656"/><stop offset="1" stop-color="#4d4d4d"/></linearGradient></defs><path class="a" d="M45.35,34h-34V.71A.71.71,0,0,1,12.05,0h32.6a.7.7,0,0,1,.7.71Z"/><path class="b" d="M28.35,34V28.59a.71.71,0,0,0-.86-.69l-2.81.62a.71.71,0,0,1-.86-.69V23.19a.71.71,0,0,1,.86-.69l2.81.62a.71.71,0,0,0,.86-.69V11.59a.71.71,0,0,0-.86-.7l-2.81.62a.71.71,0,0,1-.86-.69V6.19a.7.7,0,0,1,.86-.69l2.81.61a.7.7,0,0,0,.86-.69V0"/><rect class="c" x="16.3" y="14.6" width="7.09" height="4.82" rx="0.71"/><rect class="c" x="33.31" y="14.6" width="7.09" height="4.82" rx="0.71"/><rect class="d" y="34.02" width="56.69" height="56.69"/><path class="e" d="M12.55,84.88a3.87,3.87,0,0,1-.28,1.49,3.68,3.68,0,0,1-.77,1.21,3.61,3.61,0,0,1-1.17.83,3.69,3.69,0,0,1-1.5.3,3.65,3.65,0,0,1-1.5-.3,3.48,3.48,0,0,1-1.17-.82,3.74,3.74,0,0,1-.75-1.21,4.17,4.17,0,0,1-.29-1.5l0-7.7H6.51l0,7.7a3,3,0,0,0,.16,1,2.45,2.45,0,0,0,.44.83,2,2,0,0,0,.7.57,2.08,2.08,0,0,0,1,.22,2.17,2.17,0,0,0,1-.21,2.24,2.24,0,0,0,.71-.58,2.62,2.62,0,0,0,.43-.83,3.6,3.6,0,0,0,.17-1l0-7.7h1.4Z"/><path class="e" d="M20.71,84.79a2.18,2.18,0,0,0-.61-.6,3.7,3.7,0,0,0-.82-.41l-.87-.3c-.4-.13-.81-.29-1.22-.47a6,6,0,0,1-1.13-.67,3.42,3.42,0,0,1-.84-.94,2.51,2.51,0,0,1-.32-1.28,2.7,2.7,0,0,1,.32-1.31,3.33,3.33,0,0,1,.85-1,3.92,3.92,0,0,1,1.19-.6A4.35,4.35,0,0,1,18.59,77a4.06,4.06,0,0,1,1.43.25,3.75,3.75,0,0,1,1.22.69A3.21,3.21,0,0,1,22.09,79a3.12,3.12,0,0,1,.34,1.41H20.94a3,3,0,0,0-.24-.89,2.46,2.46,0,0,0-.47-.7,2.07,2.07,0,0,0-.71-.44,2.49,2.49,0,0,0-.93-.16,2.82,2.82,0,0,0-.81.11,2.42,2.42,0,0,0-.7.35,1.83,1.83,0,0,0-.49.58,1.71,1.71,0,0,0-.18.8,1.34,1.34,0,0,0,.25.83,2.12,2.12,0,0,0,.61.58,5,5,0,0,0,.8.39l.82.27c.42.13.84.29,1.27.47a5,5,0,0,1,1.15.71,2.92,2.92,0,0,1,.83,1,2.73,2.73,0,0,1,.32,1.33A2.54,2.54,0,0,1,22.12,87a3,3,0,0,1-.88.94,3.82,3.82,0,0,1-1.22.58,4.88,4.88,0,0,1-2.95-.08,4.21,4.21,0,0,1-1.37-.79,3.44,3.44,0,0,1-.81-1.05,3.22,3.22,0,0,1-.33-1.33H16a2.47,2.47,0,0,0,.29.94,2,2,0,0,0,.56.69,2.27,2.27,0,0,0,.79.44,3.41,3.41,0,0,0,1,.14,3.31,3.31,0,0,0,.83-.1,2.09,2.09,0,0,0,.74-.34,1.82,1.82,0,0,0,.52-.55,1.62,1.62,0,0,0,.2-.81A1.58,1.58,0,0,0,20.71,84.79Z"/><path class="e" d="M24.58,77.18H28a5.26,5.26,0,0,1,1.37.18,3.86,3.86,0,0,1,1.2.54,2.68,2.68,0,0,1,.83.94,2.8,2.8,0,0,1,.31,1.37,2.54,2.54,0,0,1-.15.81,2.13,2.13,0,0,1-.37.66,2.77,2.77,0,0,1-.53.5,4.63,4.63,0,0,1-.71.38v0a2.55,2.55,0,0,1,.83.37,3.16,3.16,0,0,1,.66.59,2.6,2.6,0,0,1,.42.79,2.85,2.85,0,0,1,.15.94,2.93,2.93,0,0,1-.3,1.41,3.05,3.05,0,0,1-.84,1,3.84,3.84,0,0,1-1.2.64,4.83,4.83,0,0,1-1.41.22H24.58ZM28.05,82a3.11,3.11,0,0,0,.8-.13,2.21,2.21,0,0,0,.7-.36A1.77,1.77,0,0,0,30,81a1.61,1.61,0,0,0,.19-.78,1.67,1.67,0,0,0-.19-.81,1.56,1.56,0,0,0-.49-.56,2.19,2.19,0,0,0-.71-.31,3.77,3.77,0,0,0-.83-.11H26V82Zm-2,5.3h2.22a2.68,2.68,0,0,0,.86-.16,2.3,2.3,0,0,0,.72-.4,1.82,1.82,0,0,0,.5-.63,2.23,2.23,0,0,0,0-1.71,1.75,1.75,0,0,0-.46-.64,1.94,1.94,0,0,0-.7-.4,2.63,2.63,0,0,0-.86-.16H26Z"/><path class="e" d="M34.55,84.17V83h6v1.19Z"/><path class="e" d="M45.44,85.61l-.92,2.94H43.08l3.67-11.37H48l3.61,11.37H50.13l-.9-2.94Zm3.41-1.26-1.5-4.94-1.52,4.94Z"/></svg>