<svg class="size-obj" id="size-usbc" xmlns="http://www.w3.org/2000/svg"
  xmlns:xlink="http://www.w3.org/1999/xlink" viewBox="0 0 56.69 75.54">
  <defs>
    <linearGradient id="aaa" x1="16.44" y1="9.43" x2="40.25" y2="9.43" gradientUnits="userSpaceOnUse">
      <stop offset="0" stop-color="#4d4d4d"/>
      <stop offset="0.01" stop-color="#565656"/>
      <stop offset="0.03" stop-color="#757575"/>
      <stop offset="0.06" stop-color="#919191"/>
      <stop offset="0.09" stop-color="#a7a7a7"/>
      <stop offset="0.12" stop-color="#b8b8b8"/>
      <stop offset="0.17" stop-color="#c3c3c3"/>
      <stop offset="0.23" stop-color="#cacaca"/>
      <stop offset="0.4" stop-color="#ccc"/>
      <stop offset="0.6" stop-color="#ccc"/>
      <stop offset="0.77" stop-color="#cacaca"/>
      <stop offset="0.83" stop-color="#c3c3c3"/>
      <stop offset="0.88" stop-color="#b8b8b8"/>
      <stop offset="0.91" stop-color="#a7a7a7"/>
      <stop offset="0.94" stop-color="#919191"/>
      <stop offset="0.97" stop-color="#757575"/>
      <stop offset="0.99" stop-color="#565656"/>
      <stop offset="1" stop-color="#4d4d4d"/>
    </linearGradient>
  </defs>
  <g>
    <path d="M40.25,18.85H16.44V.71A.71.71,0,0,1,17.15,0H39.54a.71.71,0,0,1,.71.71Z" style="fill:url(#aaa)"/>
  </g>
  <g class="minor">
    <rect y="18.85" width="56.69" height="56.69" style="fill:#333"/>
    <path d="M12.75,69.72a3.9,3.9,0,0,1-1.05,2.7,3.59,3.59,0,0,1-1.17.82,3.69,3.69,0,0,1-1.5.3,3.82,3.82,0,0,1-1.5-.29,3.48,3.48,0,0,1-1.17-.82,4,4,0,0,1-.76-1.22,4.29,4.29,0,0,1-.28-1.49l0-7.71H6.71l0,7.71a3.19,3.19,0,0,0,.17,1,2.45,2.45,0,0,0,.44.83,2.09,2.09,0,0,0,.7.58,2.21,2.21,0,0,0,1,.22,2.05,2.05,0,0,0,1-.22,2.11,2.11,0,0,0,.71-.58,2.62,2.62,0,0,0,.43-.83,4,4,0,0,0,.17-1l0-7.71h1.4Z" style="fill:#fff"/>
    <path d="M20.91,69.63A2.21,2.21,0,0,0,20.3,69a4.19,4.19,0,0,0-.82-.41l-.87-.29a11,11,0,0,1-1.22-.48,5.49,5.49,0,0,1-1.13-.66,3.46,3.46,0,0,1-.84-1A2.37,2.37,0,0,1,15.1,65a2.63,2.63,0,0,1,.32-1.32,3.17,3.17,0,0,1,.85-1,3.72,3.72,0,0,1,1.19-.61,4.66,4.66,0,0,1,1.33-.2,4.29,4.29,0,0,1,1.43.24,4.16,4.16,0,0,1,1.22.69,3.45,3.45,0,0,1,.85,1.08,3.13,3.13,0,0,1,.34,1.42H21.14a3.13,3.13,0,0,0-.24-.9,2.14,2.14,0,0,0-.48-.69,2.11,2.11,0,0,0-.7-.45,2.49,2.49,0,0,0-.93-.16,2.84,2.84,0,0,0-.81.12,2.19,2.19,0,0,0-.7.35,1.83,1.83,0,0,0-.49.58,1.68,1.68,0,0,0-.19.79,1.52,1.52,0,0,0,.25.84,2.42,2.42,0,0,0,.62.57,3.71,3.71,0,0,0,.8.39c.29.11.56.2.82.27a10.82,10.82,0,0,1,1.26.48,4.84,4.84,0,0,1,1.16.7,3.26,3.26,0,0,1,.83,1,2.77,2.77,0,0,1,.32,1.34,2.51,2.51,0,0,1-.34,1.33,3.08,3.08,0,0,1-.88,1,4.14,4.14,0,0,1-1.22.57,4.85,4.85,0,0,1-1.36.19,4.93,4.93,0,0,1-1.6-.27,4.09,4.09,0,0,1-1.36-.79,3.43,3.43,0,0,1-.82-1,3.22,3.22,0,0,1-.32-1.33h1.48a2.59,2.59,0,0,0,.29.94,2.21,2.21,0,0,0,.56.69,2.25,2.25,0,0,0,.79.43,3.1,3.1,0,0,0,1,.15,3.32,3.32,0,0,0,.83-.11,2.12,2.12,0,0,0,.73-.33,1.77,1.77,0,0,0,.53-.56,1.62,1.62,0,0,0,.2-.81A1.54,1.54,0,0,0,20.91,69.63Z" style="fill:#fff"/>
    <path d="M24.78,62h3.39a5.73,5.73,0,0,1,1.37.19,3.45,3.45,0,0,1,1.2.54,2.59,2.59,0,0,1,.83.94A2.76,2.76,0,0,1,31.88,65a2.66,2.66,0,0,1-.15.82,2.2,2.2,0,0,1-.37.65,2.49,2.49,0,0,1-.53.5,3.37,3.37,0,0,1-.71.38v0a2.55,2.55,0,0,1,.83.37,2.83,2.83,0,0,1,.65.58,2.64,2.64,0,0,1,.43.79,2.91,2.91,0,0,1,.15,1,2.86,2.86,0,0,1-.3,1.4,3,3,0,0,1-.84,1,4,4,0,0,1-1.21.63,4.73,4.73,0,0,1-1.41.23H24.78Zm3.47,4.85a2.44,2.44,0,0,0,.8-.13,2,2,0,0,0,.69-.35,1.79,1.79,0,0,0,.5-.56,1.66,1.66,0,0,0,.18-.78,1.74,1.74,0,0,0-.18-.82,1.52,1.52,0,0,0-.49-.55,2.07,2.07,0,0,0-.71-.31,3.32,3.32,0,0,0-.83-.11h-2v3.61Zm-2,5.3h2.22a2.68,2.68,0,0,0,.86-.15,2.52,2.52,0,0,0,.72-.4,2,2,0,0,0,.5-.64,1.93,1.93,0,0,0,.18-.85,1.91,1.91,0,0,0-.62-1.5,2.29,2.29,0,0,0-.7-.4,2.92,2.92,0,0,0-.86-.15h-2.3Z" style="fill:#fff"/>
    <path d="M34.74,69V67.82h6V69Z" style="fill:#fff"/>
    <path d="M51,71.41a3.53,3.53,0,0,1-.79,1.13,3.25,3.25,0,0,1-1.16.74,3.9,3.9,0,0,1-1.48.26,3.7,3.7,0,0,1-1.28-.2,3.35,3.35,0,0,1-1-.55,3.8,3.8,0,0,1-.78-.82,5.35,5.35,0,0,1-.53-1,5.89,5.89,0,0,1-.33-1.18,7.45,7.45,0,0,1-.11-1.25V66.91a7.45,7.45,0,0,1,.11-1.25,5.89,5.89,0,0,1,.33-1.18,5.35,5.35,0,0,1,.53-1,3.63,3.63,0,0,1,.78-.83,3.41,3.41,0,0,1,1-.55,3.72,3.72,0,0,1,1.29-.2,4.08,4.08,0,0,1,1.52.26,3.34,3.34,0,0,1,1.16.74A3.57,3.57,0,0,1,51,64a4.94,4.94,0,0,1,.39,1.49H49.92a3.56,3.56,0,0,0-.24-1,2.69,2.69,0,0,0-.46-.79,2,2,0,0,0-.71-.52,2.26,2.26,0,0,0-1-.19,2.31,2.31,0,0,0-.91.16,2.2,2.2,0,0,0-.68.46,2.72,2.72,0,0,0-.48.67,4.67,4.67,0,0,0-.31.81A6.51,6.51,0,0,0,45,66c0,.3,0,.59,0,.87V68.5c0,.28,0,.57,0,.87a6.51,6.51,0,0,0,.17.88,4.47,4.47,0,0,0,.31.82,2.45,2.45,0,0,0,.47.67,2,2,0,0,0,.68.46,2.19,2.19,0,0,0,.92.17,2.42,2.42,0,0,0,1-.18,1.93,1.93,0,0,0,.71-.51,2.31,2.31,0,0,0,.46-.76,3.58,3.58,0,0,0,.24-1h1.45A4.8,4.8,0,0,1,51,71.41Z" style="fill:#fff"/>
  </g>
</svg>
